<svg xmlns="http://www.w3.org/2000/svg" width="24" height="24" fill="none" stroke="currentColor" stroke-width="2" stroke-linecap="round" stroke-linejoin="round" class="icon icon-tabler icons-tabler-outline icon-tabler-brightness-half"><path d="M11.58 2.597c-.103.048-.571.487-1.32 1.239L9.101 5H7.497c-1.743 0-1.838.01-2.115.221-.08.061-.195.194-.254.295L5.02 5.7l-.011 1.7-.012 1.7-1.194 1.2c-1.277 1.283-1.292 1.304-1.292 1.7 0 .396.015.417 1.292 1.7l1.194 1.2.012 1.7.011 1.7.111.189c.061.103.173.236.25.294.274.209.315.213 2.079.215L9.101 19l1.159 1.164c1.264 1.269 1.336 1.324 1.74 1.324.404 0 .476-.055 1.74-1.324L14.899 19l1.641-.002c1.764-.002 1.805-.006 2.079-.215.077-.058.189-.191.25-.294l.111-.189.011-1.7.012-1.7 1.194-1.2c1.277-1.283 1.292-1.304 1.292-1.7 0-.396-.015-.417-1.292-1.7l-1.194-1.2-.012-1.7-.011-1.7-.108-.184a1.209 1.209 0 0 0-.254-.295C18.341 5.01 18.246 5 16.503 5h-1.604L13.74 3.836c-.749-.752-1.217-1.191-1.32-1.239-.215-.101-.625-.101-.84 0m1.38 3.266c.517.518 1.012.982 1.1 1.03.154.084.209.087 1.55.099l1.39.012.001 1.348c.001 1.265.006 1.359.082 1.528.058.13.35.45 1.048 1.15l.968.97-.968.97c-.698.7-.99 1.02-1.048 1.15-.076.169-.081.263-.082 1.528L17 16.996l-1.39.012c-1.261.011-1.403.019-1.53.086-.077.041-.577.508-1.11 1.04l-.97.965-.97-.965c-.533-.532-1.033-.999-1.11-1.04-.127-.067-.269-.075-1.528-.086l-1.388-.012-.012-1.388c-.011-1.259-.019-1.401-.086-1.528-.041-.077-.508-.577-1.04-1.11L4.901 12l.965-.97c.532-.533.999-1.033 1.04-1.11.067-.127.075-.269.086-1.528l.012-1.388 1.388-.012c1.339-.012 1.394-.015 1.548-.099.088-.048.583-.512 1.1-1.03.517-.519.949-.943.96-.943.011 0 .443.424.96.943m-1.602 2.198c-1.128.176-2.215.913-2.789 1.892a3.992 3.992 0 0 0 1.943 5.751c.774.312 1.61.38 1.983.161a1.07 1.07 0 0 0 .466-.589c.027-.099.037-1.271.03-3.364L12.98 8.7l-.108-.184c-.272-.462-.68-.585-1.514-.455M11 12c0 .946-.015 1.72-.034 1.72-.08 0-.557-.489-.685-.702-.521-.867-.286-2.018.535-2.623.086-.063.162-.115.17-.115.008 0 .014.774.014 1.72" fill="#000" fill-rule="evenodd" stroke="none"/></svg>